<svg width="251" height="206" viewBox="0 0 251 206" fill="none" xmlns="http://www.w3.org/2000/svg">
<path d="M248.043 136.257C247.992 149.483 243.22 162.255 234.585 172.274C231.701 175.615 226.698 179.169 219.713 182.835C215.214 185.174 210.248 186.475 205.18 186.641C200.112 186.808 195.071 185.836 190.428 183.797C192.402 185.753 194.161 187.914 195.675 190.244L196.452 191.422L195.043 191.485C194.127 191.526 193.213 191.545 192.328 191.541C187.114 191.521 181.838 187.557 177.011 189.357C156.668 196.944 136.386 221.18 105.083 185.821C102.188 182.55 96.3562 186.882 91.956 186.865C48.8334 186.698 -25.5347 125.466 14.0529 108.346C62.8743 87.233 57.8028 50.5133 67.9326 34.2939L68.6457 34.0608L68.9242 34.7569C70.406 38.3209 71.3883 42.0725 71.8435 45.9054C72.6922 41.8243 73.0575 37.6575 72.9319 33.4911L72.9118 32.845L73.5403 32.6901C79.7644 31.1644 86.1519 30.406 92.5602 30.4317L93.2529 30.4373C98.1203 30.4706 102.94 29.4776 107.398 27.5232C111.856 25.5689 115.852 22.697 119.125 19.0948C124.354 13.4052 130.71 8.86714 137.789 5.76999C144.869 2.67283 152.516 1.08447 160.243 1.10622C169.385 1.14153 181.361 7.40084 189.798 12.6457C191.947 13.975 193.768 15.7737 195.122 17.9068C196.477 20.0399 197.331 22.4521 197.621 24.9624C197.911 27.3402 197.676 29.7528 196.93 32.0294C196.185 34.306 194.949 36.3911 193.308 38.1369C198.278 35.6891 202.843 32.4917 206.841 28.6569L207.577 27.9486L208.088 28.8336C213.003 37.3381 215.572 46.9955 215.53 56.8181L215.526 57.3933C215.424 64.5953 216.76 71.7453 219.456 78.4244C222.153 85.1034 226.155 91.1773 231.228 96.2903C236.551 101.497 240.78 107.715 243.668 114.578C246.555 121.441 248.043 128.812 248.043 136.257Z" fill="#59344F"/>
</svg>
