<svg width="218" height="222" viewBox="0 0 218 222" fill="none" xmlns="http://www.w3.org/2000/svg">
<g clip-path="url(#clip0_4_9)">
<path d="M180.169 55.6511C180.712 62.8335 182.683 69.8352 185.966 76.2461C189.249 82.657 193.779 88.3481 199.29 92.9861L199.727 93.3599C207.179 99.7593 212.798 108.023 216.008 117.307L216.342 118.273L215.325 118.365C209.809 118.877 204.404 120.233 199.299 122.387C201.693 122.291 204.078 122.721 206.287 123.648C208.496 124.575 210.474 125.977 212.081 127.753C213.789 129.616 215.053 131.84 215.779 134.261C216.504 136.682 216.672 139.235 216.269 141.73C214.71 151.541 211.6 164.692 205.642 171.625C200.599 177.48 194.392 182.221 187.416 185.544C180.44 188.867 172.848 190.701 165.125 190.928C160.259 191.044 155.472 192.184 151.076 194.274C146.68 196.364 142.774 199.357 139.612 203.058L139.163 203.585C134.987 208.446 130.231 212.778 125.003 216.484L124.475 216.857L123.999 216.419C120.932 213.596 117.543 211.145 113.903 209.114C116.502 211.968 118.695 215.166 120.419 218.62L120.762 219.286L120.119 219.672C101.227 216.71 76.792 188.836 28.869 211.916C-9.98999 230.631 -7.58447 134.328 20.5224 101.624C23.3904 98.2868 30.4827 96.7151 29.9061 92.3848C23.673 45.5738 55.2709 46.1104 74.325 35.7005C78.8459 33.2306 79.3037 26.6473 82.7024 22.6927C83.2791 22.0217 83.8914 21.3437 84.5226 20.6778L85.4923 19.6534L85.8739 21.0122C86.6441 23.682 87.1262 26.4266 87.3119 29.1991C88.8105 24.3549 91.3762 19.9083 94.8202 16.1865C98.2642 12.4648 102.499 9.56259 107.212 7.69349C114.556 4.81416 120.518 3.35828 124.932 3.36687C139.07 3.39633 152.662 8.82538 162.929 18.5439C173.197 28.2624 179.363 41.5363 180.169 55.6511L180.169 55.6511Z" fill="#F49097"/>
</g>
<defs>
<clipPath id="clip0_4_9">
<rect width="218" height="222" fill="white"/>
</clipPath>
</defs>
</svg>
